<?xml version="1.0" standalone="no"?>
<!DOCTYPE svg PUBLIC "-//W3C//DTD SVG 20010904//EN"
 "http://www.w3.org/TR/2001/REC-SVG-20010904/DTD/svg10.dtd">
<svg version="1.0" xmlns="http://www.w3.org/2000/svg"
 width="310.000000pt" height="310.000000pt" viewBox="0 0 310.000000 310.000000"
 preserveAspectRatio="xMidYMid meet">
<metadata>
Created by potrace 1.14, written by Peter Selinger 2001-2017
</metadata>
<g transform="translate(0.000000,310.000000) scale(0.100000,-0.100000)"
fill="#000000" stroke="none">
<path d="M673 3023 c-46 -2 -83 -8 -83 -13 0 -5 70 -105 156 -222 l157 -211
-17 -32 c-9 -17 -34 -50 -54 -74 l-37 -43 -185 261 c-102 143 -190 261 -196
261 -15 0 -83 -47 -133 -93 -94 -85 -150 -181 -184 -315 -22 -87 -22 -89 -22
-987 0 -898 0 -900 22 -987 37 -145 97 -243 207 -336 102 -86 218 -127 406
-142 152 -12 1522 -12 1670 0 211 17 336 69 455 188 110 110 159 235 175 452
11 148 13 1700 3 1699 -5 0 -62 -74 -128 -164 l-120 -164 -238 -1 -238 0 23
33 c12 17 89 122 171 232 81 109 146 204 145 210 -7 28 -325 446 -343 450 -11
3 -153 4 -316 3 l-295 -3 167 -225 c166 -223 167 -225 152 -250 -9 -14 -88
-121 -175 -237 l-158 -213 -235 0 c-129 0 -235 2 -235 5 0 2 77 108 171 235
l171 231 -26 37 c-14 20 -90 123 -169 227 l-142 190 -220 1 c-121 0 -257 -1
-302 -3z m1942 -1473 c-9 -14 -2131 -14 -2140 0 -4 7 355 10 1070 10 715 0
1074 -3 1070 -10z m5 -550 c0 -7 -365 -10 -1075 -10 -710 0 -1075 3 -1075 10
0 7 365 10 1075 10 710 0 1075 -3 1075 -10z"/>
</g>
</svg>
