<?xml version="1.0" standalone="no"?>
<!DOCTYPE svg PUBLIC "-//W3C//DTD SVG 20010904//EN"
 "http://www.w3.org/TR/2001/REC-SVG-20010904/DTD/svg10.dtd">
<svg version="1.0" xmlns="http://www.w3.org/2000/svg"
 width="500.000000pt" height="500.000000pt" viewBox="0 0 500.000000 500.000000"
 preserveAspectRatio="xMidYMid meet">
<metadata>
Created by potrace 1.14, written by Peter Selinger 2001-2017
</metadata>
<g transform="translate(0.000000,500.000000) scale(0.100000,-0.100000)"
fill="#000000" stroke="none">
<path d="M3638 4039 c-7 -4 -26 -9 -43 -12 -16 -3 -37 -8 -45 -11 -8 -3 -26
-8 -40 -10 -14 -3 -60 -14 -102 -24 -43 -11 -80 -17 -83 -14 -3 3 -5 1 -5 -4
0 -5 -8 -10 -17 -10 -18 -1 -125 -25 -478 -109 -104 -25 -305 -73 -445 -106
-140 -33 -293 -69 -340 -81 -47 -11 -94 -22 -105 -24 -11 -2 -45 -10 -75 -19
-30 -8 -66 -17 -80 -20 -14 -3 -36 -7 -50 -10 -14 -4 -29 -7 -35 -8 -5 -2 -16
-6 -22 -10 -7 -5 -13 -6 -13 -4 0 2 -26 -2 -57 -10 -32 -7 -69 -16 -83 -19
-14 -3 -79 -18 -145 -34 -66 -16 -131 -31 -145 -33 -14 -3 -45 -10 -70 -17
-40 -11 -71 -18 -107 -24 -7 -1 -16 -5 -19 -9 -4 -4 -16 -7 -27 -7 -29 0 -93
-55 -115 -101 -31 -62 -27 -90 43 -359 25 -96 48 -186 52 -200 3 -14 7 -358 8
-765 1 -407 5 -762 9 -790 14 -101 94 -198 203 -247 l48 -22 1219 -1 c949 0
1230 3 1269 12 60 16 144 73 180 124 63 87 60 46 62 934 2 894 4 870 -56 876
-19 2 -534 4 -1146 4 -611 0 -1110 2 -1107 4 3 3 10 6 17 7 31 7 81 18 130 30
4 1 8 2 10 3 1 2 13 4 27 6 14 2 57 11 95 20 39 9 81 18 95 21 14 3 88 20 165
39 77 19 151 36 165 39 14 3 66 14 115 25 50 11 101 22 115 25 14 3 45 10 70
16 25 6 83 20 130 30 47 10 153 34 235 53 83 20 161 38 175 40 14 3 54 12 90
20 36 9 119 28 185 42 66 15 147 33 180 42 33 8 71 17 85 19 54 9 166 37 185
47 11 6 25 17 31 26 16 20 16 21 -54 281 -58 215 -66 237 -95 268 -45 48 -151
82 -189 61z m90 -149 c9 -11 24 -49 34 -83 9 -34 30 -114 47 -177 16 -63 27
-118 23 -122 -4 -4 -23 -10 -42 -13 -31 -5 -67 -13 -145 -31 -81 -19 -67 -28
-253 159 -96 96 -170 177 -165 180 5 3 20 8 34 11 13 3 89 21 169 41 80 19
161 38 180 41 19 3 37 8 39 10 13 12 63 1 79 -16z m-330 -483 c-11 -4 -32 -9
-46 -12 -55 -10 -72 -14 -80 -18 -4 -3 -25 -8 -47 -11 -22 -4 -56 -11 -75 -16
-19 -5 -49 -12 -67 -15 -18 -3 -43 -9 -57 -15 -15 -5 -26 -8 -26 -5 0 2 -14 0
-32 -6 -31 -8 -34 -6 -206 167 -96 96 -172 177 -169 180 3 3 16 7 29 8 12 2
52 10 88 19 36 9 103 25 150 36 47 11 112 26 145 34 l60 15 177 -177 c154
-153 174 -177 156 -184z m-792 41 c96 -95 170 -175 166 -178 -6 -5 -138 -38
-267 -66 -30 -6 -54 -12 -120 -29 -33 -8 -66 -15 -73 -15 -7 0 -91 77 -185
172 l-172 171 30 9 c16 4 41 10 55 12 14 3 66 15 115 27 50 11 97 22 105 24 8
2 15 4 15 5 0 1 9 3 20 5 39 7 74 15 97 24 13 6 27 10 32 10 5 1 87 -76 182
-171z m-634 -145 c92 -92 168 -171 168 -174 0 -7 -157 -47 -254 -65 -16 -2
-32 -6 -35 -8 -3 -2 -22 -7 -41 -10 -19 -3 -59 -12 -89 -20 l-54 -14 -171 171
-171 171 30 8 c17 4 41 10 55 13 14 3 40 9 58 14 17 5 32 7 32 4 0 -3 7 0 15
7 8 7 15 10 15 7 0 -3 15 -1 33 4 42 13 154 39 191 44 16 3 32 7 34 10 3 3 8
5 11 5 3 0 81 -75 173 -167z m-618 -162 c106 -106 155 -162 145 -165 -25 -8
-223 -54 -269 -62 -14 -3 -31 -7 -39 -10 -8 -2 -30 -7 -50 -10 -20 -3 -40 -7
-45 -7 -9 -2 -81 254 -90 323 -4 22 0 42 9 54 18 23 143 58 165 46 8 -5 87
-81 174 -169z m116 -403 c0 -4 -9 -23 -20 -43 -11 -19 -17 -35 -14 -35 4 0 2
-6 -4 -13 -6 -7 -42 -76 -80 -153 l-70 -140 -76 0 c-61 1 -76 4 -77 16 -3 87
-1 359 4 366 6 11 337 12 337 2z m646 -1 c4 -4 -44 -109 -87 -187 -20 -37 -62
-126 -65 -137 -1 -6 -10 -22 -20 -35 l-18 -24 -248 0 c-136 0 -248 1 -248 3 0
6 182 368 190 378 9 11 485 13 496 2z m654 2 c0 -3 -42 -91 -94 -195 l-94
-189 -251 0 c-138 -1 -251 1 -251 3 0 6 182 366 190 377 9 11 500 15 500 4z
m645 0 c3 -4 -37 -91 -90 -195 l-95 -189 -250 0 c-137 0 -250 1 -250 2 0 2 37
76 82 166 45 89 83 169 84 177 8 41 30 45 276 45 130 0 239 -3 243 -6z m420 2
c19 -1 20 -8 20 -193 l0 -193 -238 -1 c-130 0 -236 3 -235 8 2 4 44 90 93 192
78 160 93 185 115 188 22 3 189 2 245 -1z m19 -531 c2 -8 3 -238 2 -510 l-1
-495 -28 -50 c-27 -49 -58 -73 -117 -91 -14 -5 -558 -8 -1210 -9 -1300 -1
-1256 -3 -1312 58 -60 64 -59 56 -61 604 -2 440 0 503 13 505 8 2 621 3 1363
3 1196 0 1348 -1 1351 -15z"/>
</g>
</svg>
